<?xml version="1.0" standalone="no"?>
<svg xmlns:xlink="http://www.w3.org/1999/xlink" id="wave" style="transform:rotate(0deg); transition: 0.3s" viewBox="0 0 1440 490" version="1.1" xmlns="http://www.w3.org/2000/svg"><defs><linearGradient id="sw-gradient-0" x1="0" x2="0" y1="1" y2="0"><stop stop-color="rgba(255, 255, 255, 1)" offset="0%"/><stop stop-color="rgba(255, 255, 255, 1)" offset="100%"/></linearGradient></defs><path style="transform:translate(0, 0px); opacity:1" fill="url(#sw-gradient-0)" d="M0,343L30,351.2C60,359,120,376,180,359.3C240,343,300,294,360,294C420,294,480,343,540,343C600,343,660,294,720,294C780,294,840,343,900,343C960,343,1020,294,1080,294C1140,294,1200,343,1260,375.7C1320,408,1380,425,1440,367.5C1500,310,1560,180,1620,147C1680,114,1740,180,1800,228.7C1860,278,1920,310,1980,343C2040,376,2100,408,2160,375.7C2220,343,2280,245,2340,212.3C2400,180,2460,212,2520,228.7C2580,245,2640,245,2700,253.2C2760,261,2820,278,2880,310.3C2940,343,3000,392,3060,400.2C3120,408,3180,376,3240,343C3300,310,3360,278,3420,277.7C3480,278,3540,310,3600,318.5C3660,327,3720,310,3780,310.3C3840,310,3900,327,3960,318.5C4020,310,4080,278,4140,285.8C4200,294,4260,343,4290,367.5L4320,392L4320,490L4290,490C4260,490,4200,490,4140,490C4080,490,4020,490,3960,490C3900,490,3840,490,3780,490C3720,490,3660,490,3600,490C3540,490,3480,490,3420,490C3360,490,3300,490,3240,490C3180,490,3120,490,3060,490C3000,490,2940,490,2880,490C2820,490,2760,490,2700,490C2640,490,2580,490,2520,490C2460,490,2400,490,2340,490C2280,490,2220,490,2160,490C2100,490,2040,490,1980,490C1920,490,1860,490,1800,490C1740,490,1680,490,1620,490C1560,490,1500,490,1440,490C1380,490,1320,490,1260,490C1200,490,1140,490,1080,490C1020,490,960,490,900,490C840,490,780,490,720,490C660,490,600,490,540,490C480,490,420,490,360,490C300,490,240,490,180,490C120,490,60,490,30,490L0,490Z"/></svg>